<svg id="Layer_1" data-name="Layer 1" xmlns="http://www.w3.org/2000/svg" viewBox="0 0 1258.14 464.19"><defs><style>.cls-1{fill:#006837;}.cls-2{fill:#8cc63f;}</style></defs><path class="cls-1" d="M187.13,128.53v40.2h64.92v35H187.13v42.65h73.06v37.21H140.68v-192H260.19v36.94Z"/><path class="cls-1" d="M333,82.63v201H286.54v-201Z"/><path class="cls-1" d="M507.64,216.27H402.52q.83,17.11,8.69,24.58t20.11,7.47q10.31,0,17.11-5.16a24.14,24.14,0,0,0,9-13.31h49.17a64.36,64.36,0,0,1-13,28.66A69.34,69.34,0,0,1,468,278.33a80.81,80.81,0,0,1-34.49,7.2q-22.28,0-39.52-9.37a66.85,66.85,0,0,1-27-27q-9.78-17.65-9.78-41.29,0-23.91,9.64-41.43a66.11,66.11,0,0,1,27-26.89q17.39-9.36,39.66-9.37,22.54,0,39.66,9.24a65.3,65.3,0,0,1,26.48,25.94Q509,182,509,203.77A63.83,63.83,0,0,1,507.64,216.27ZM454,174.3q-8.29-7.47-20.51-7.47-12.78,0-21.19,7.61t-9.51,22.27H462Q462.28,181.77,454,174.3Z"/><path class="cls-1" d="M773.56,147.68q16,17.25,16,47.94v88H743.41V201.06q0-14.4-7.74-22.41t-21-8q-13.86,0-21.87,8.56t-8,24v80.4H638.29V201.06q0-14.4-7.6-22.41t-20.92-8q-13.85,0-22,8.42t-8.15,24.18v80.4H533.17V132.06h46.45v25.81A45.2,45.2,0,0,1,598,137.77q12.36-7.34,28.93-7.34,17.39,0,30.7,8a50.35,50.35,0,0,1,20.1,23,60.69,60.69,0,0,1,21.59-22.55,56.79,56.79,0,0,1,30.29-8.42Q757.54,130.43,773.56,147.68Z"/><path class="cls-1" d="M1126.27,147.82q15.33,17.38,15.34,47.8v88h-46.45V201.06q0-15.21-8-23.77t-21.32-8.56q-14.13,0-22.41,9t-8.28,25.53v80.4H988.69V132.06h46.45v27.71a50,50,0,0,1,19.42-21.46q12.89-7.87,30.28-7.88Q1110.93,130.43,1126.27,147.82Z"/><path class="cls-1" d="M1258.14,243.7v39.93h-20.91q-26.62,0-41.43-13.17t-14.8-43.6V171.18h-20.38V132.06H1181V94.85h46.45v37.21h30.42v39.12h-30.42v56.5q0,9,3.66,12.49c2.45,2.36,6.56,3.53,12.36,3.53Z"/><path class="cls-1" d="M378.79,333.91a18,18,0,0,1,6.34,10.64h-10a9.27,9.27,0,0,0-3.41-4.27,9.55,9.55,0,0,0-5.46-1.55,8.31,8.31,0,0,0-6.7,3,14.24,14.24,0,0,0,0,16.26,8.35,8.35,0,0,0,6.7,3,9.55,9.55,0,0,0,5.46-1.55,9.32,9.32,0,0,0,3.41-4.21h10a18.09,18.09,0,0,1-6.34,10.61,19.08,19.08,0,0,1-12.38,4,19.53,19.53,0,0,1-10-2.52,17.2,17.2,0,0,1-6.68-7.07,24,24,0,0,1,0-20.72,17.17,17.17,0,0,1,6.68-7.06,19.53,19.53,0,0,1,10-2.52A19.18,19.18,0,0,1,378.79,333.91Z"/><path class="cls-1" d="M411,362.28h12.63v7.25H401.53V330.36H411Z"/><path class="cls-1" d="M448.57,337.9v8.2h13.24v7.15H448.57v8.69h14.9v7.59H439.09V330.36h24.38v7.54Z"/><path class="cls-1" d="M504.19,362.39H489.51l-2.44,7.14h-10l14.35-38.89h10.91l14.35,38.89H506.63Zm-2.44-7.21-4.87-14.4L492,355.18Z"/><path class="cls-1" d="M566.24,369.53h-9.47l-15.85-24v24h-9.47V330.36h9.47l15.85,24.27V330.36h9.47Z"/><path class="cls-1" d="M593.33,330.36v39.17h-9.48V330.36Z"/><path class="cls-1" d="M645.74,369.53h-9.48l-15.84-24v24h-9.48V330.36h9.48l15.84,24.27V330.36h9.48Z"/><path class="cls-1" d="M693.83,333.58a15.33,15.33,0,0,1,5.92,9.75h-10a7.74,7.74,0,0,0-3-3.35,9.33,9.33,0,0,0-4.93-1.25,9.21,9.21,0,0,0-7.2,3,11.77,11.77,0,0,0-2.72,8.17c0,3.73.95,6.6,2.85,8.59s4.61,3,8.12,3a9.57,9.57,0,0,0,9.53-7.15h-12v-6.81h19.89v9.36a19.12,19.12,0,0,1-3.54,6.37,18.33,18.33,0,0,1-6.24,4.77,19.72,19.72,0,0,1-8.67,1.83,20.62,20.62,0,0,1-10.36-2.52,17.32,17.32,0,0,1-6.84-7.07,23.47,23.47,0,0,1,0-20.72,17.31,17.31,0,0,1,6.82-7.06A20.31,20.31,0,0,1,681.69,330Q689.06,330,693.83,333.58Z"/><path class="cls-1" d="M765.37,364.22a11.11,11.11,0,0,1-4.65,4.15,16.31,16.31,0,0,1-7.45,1.55,17.55,17.55,0,0,1-10.86-3.21,11.66,11.66,0,0,1-4.65-9h10.08a5.35,5.35,0,0,0,1.58,3.5,4.89,4.89,0,0,0,3.46,1.27,4,4,0,0,0,2.88-1,3.49,3.49,0,0,0,1.06-2.66,3.44,3.44,0,0,0-1-2.49,7.59,7.59,0,0,0-2.42-1.64c-1-.42-2.28-.93-4-1.52a49.53,49.53,0,0,1-6.07-2.46,11.17,11.17,0,0,1-4-3.55,11.55,11.55,0,0,1,.08-12.16,11.33,11.33,0,0,1,4.9-3.91,18,18,0,0,1,7.18-1.35c4.35,0,7.82,1,10.38,3.1a11.82,11.82,0,0,1,4.35,8.53H756a5.25,5.25,0,0,0-1.42-3.07,4.14,4.14,0,0,0-3.07-1.14,4,4,0,0,0-2.69.89,3.26,3.26,0,0,0-1,2.6,3.33,3.33,0,0,0,.91,2.36,7,7,0,0,0,2.3,1.57q1.38.61,4,1.56a43,43,0,0,1,6.15,2.52,11.86,11.86,0,0,1,4.1,3.63,10.36,10.36,0,0,1,1.71,6.2A10.75,10.75,0,0,1,765.37,364.22Z"/><path class="cls-1" d="M817.15,330.36l-13.58,26.16v13h-9.52v-13l-13.58-26.16h10.86l7.53,16,7.54-16Z"/><path class="cls-1" d="M858.45,364.22a11.23,11.23,0,0,1-4.65,4.15,16.35,16.35,0,0,1-7.46,1.55,17.54,17.54,0,0,1-10.85-3.21,11.64,11.64,0,0,1-4.66-9h10.08a5.4,5.4,0,0,0,1.58,3.5A4.91,4.91,0,0,0,846,362.5a4,4,0,0,0,2.88-1,3.49,3.49,0,0,0,1-2.66,3.4,3.4,0,0,0-1-2.49,7.66,7.66,0,0,0-2.41-1.64c-1-.42-2.29-.93-4-1.52a50.19,50.19,0,0,1-6.07-2.46,11.25,11.25,0,0,1-4-3.55,11.55,11.55,0,0,1,.08-12.16,11.3,11.3,0,0,1,4.91-3.91,17.91,17.91,0,0,1,7.17-1.35q6.54,0,10.39,3.1a11.85,11.85,0,0,1,4.35,8.53H849.06a5.3,5.3,0,0,0-1.41-3.07,4.17,4.17,0,0,0-3.08-1.14,4,4,0,0,0-2.69.89,3.26,3.26,0,0,0-1,2.6,3.33,3.33,0,0,0,.91,2.36,7,7,0,0,0,2.3,1.57c.93.41,2.25.93,4,1.56a43,43,0,0,1,6.15,2.52,11.68,11.68,0,0,1,4.1,3.63,10.37,10.37,0,0,1,1.72,6.2A10.84,10.84,0,0,1,858.45,364.22Z"/><path class="cls-1" d="M904.51,330.36v7.54H893.88v31.63h-9.53V337.9H873.82v-7.54Z"/><path class="cls-1" d="M929.06,337.9v8.2H942.3v7.15H929.06v8.69H944v7.59H919.58V330.36H944v7.54Z"/><path class="cls-1" d="M1004.46,330.64v38.89H995V345.21l-8.42,24.32h-8.2l-8.47-24.37v24.37h-9.48V330.64H972l10.58,27.09,10.36-27.09Z"/><path class="cls-1" d="M1048.64,364.22a11.2,11.2,0,0,1-4.66,4.15,16.31,16.31,0,0,1-7.45,1.55,17.59,17.59,0,0,1-10.86-3.21,11.66,11.66,0,0,1-4.65-9h10.08a5.4,5.4,0,0,0,1.58,3.5,4.9,4.9,0,0,0,3.46,1.27,4,4,0,0,0,2.89-1,3.49,3.49,0,0,0,1-2.66,3.44,3.44,0,0,0-1-2.49,7.66,7.66,0,0,0-2.41-1.64c-1-.42-2.29-.93-4-1.52a49.53,49.53,0,0,1-6.07-2.46,11.17,11.17,0,0,1-4-3.55,11.55,11.55,0,0,1,.08-12.16,11.33,11.33,0,0,1,4.9-3.91,18,18,0,0,1,7.18-1.35q6.54,0,10.39,3.1a11.89,11.89,0,0,1,4.35,8.53h-10.25a5.25,5.25,0,0,0-1.42-3.07,4.13,4.13,0,0,0-3.07-1.14,4,4,0,0,0-2.69.89,3.26,3.26,0,0,0-1,2.6A3.33,3.33,0,0,0,1032,343a7,7,0,0,0,2.3,1.57q1.38.61,4,1.56a43,43,0,0,1,6.15,2.52,11.77,11.77,0,0,1,4.1,3.63,10.37,10.37,0,0,1,1.72,6.2A10.84,10.84,0,0,1,1048.64,364.22Z"/><rect class="cls-1" x="803.34" y="45.36" width="16.59" height="34.19"/><path class="cls-2" d="M890.71,35.13H829.29V89.77h20.8c1.94,5.4-5.49,35.48-36.81,53.89,0,0,42.39-2.2,54.19-43.41v21.34h45.32V99.88a21.34,21.34,0,0,1,21.34-21.34A43.42,43.42,0,0,0,890.71,35.13Zm6.77,64.75v6.4h-14.7V99.72a25.63,25.63,0,0,0-25.63-25.63H844.6l.45.37h-.45v-24h46.11a28.13,28.13,0,0,1,25.92,17.25A36.65,36.65,0,0,0,897.48,99.88Z"/><path class="cls-2" d="M886.19,203.48c-16.37-1.81-33.37-2.91-49.6,2.29a59.53,59.53,0,0,0-23.23,14,78.8,78.8,0,0,0,9.09,29.4,66.91,66.91,0,0,0,27,27q17.25,9.38,39.52,9.37a80.82,80.82,0,0,0,34.5-7.2A69.39,69.39,0,0,0,949,258.51a64.25,64.25,0,0,0,13-28.66H912.91a24.11,24.11,0,0,1-9,13.31q-6.8,5.16-17.11,5.16-12.23,0-20.1-7.47T858,216.27H963.16a64.6,64.6,0,0,0,1.36-12.5,92.69,92.69,0,0,0-.56-10,67.79,67.79,0,0,1-28.25,11.3C919.08,207.74,902.55,205.28,886.19,203.48Z"/><path class="cls-1" d="M955.13,165.35a65.45,65.45,0,0,0-26.45-26q-17.1-9.21-39.68-9.24c-14.84,0-28.07,3.17-39.67,9.38a66.53,66.53,0,0,0-27,26.92c-6.47,11.68-9.64,25.51-9.64,41.43a97.49,97.49,0,0,0,.67,11.88,59.58,59.58,0,0,1,23.21-14c16.26-5.19,33.27-4.11,49.6-2.29s32.93,4.25,49.53,1.62A67.49,67.49,0,0,0,964,193.76,73.88,73.88,0,0,0,955.13,165.35ZM858.3,196.73q1.11-14.67,9.51-22.27c5.61-5.06,12.69-7.62,21.19-7.62,8.17,0,15,2.49,20.52,7.49s8.16,12.41,8,22.4Z"/><rect class="cls-2" x="785.86" y="44.17" width="7.62" height="7.62" transform="matrix(0.26, -0.97, 0.97, 0.26, 539.3, 798.44)"/><path class="cls-2" d="M771,46.92l-14.05-3.76,2-7.36,14,3.76Zm-28.1-7.52-14.05-3.76,2-7.36,14,3.76Zm-28.09-7.52-14-3.75,2-7.37,14.05,3.76Zm-28.1-7.51-14-3.76,2-7.36,14,3.76Zm-28.1-7.52-14.05-3.76,2-7.36,14,3.76Z"/><rect class="cls-2" x="623.97" y="0.86" width="7.62" height="7.62" transform="matrix(0.26, -0.97, 0.97, 0.26, 461.08, 609.92)"/><rect class="cls-2" x="785.73" y="58.69" width="7.62" height="7.62"/><path class="cls-2" d="M777.75,66.31h-16V58.69h16Zm-24,0h-16V58.69h16Zm-23.95,0h-16V58.69h16Zm-24,0h-16V58.69h16Z"/><rect class="cls-2" x="674.32" y="58.69" width="7.62" height="7.62"/><rect class="cls-2" x="786.28" y="72.58" width="7.62" height="7.62" transform="translate(74.09 419.06) rotate(-31.1)"/><rect class="cls-2" x="759.4" y="86.47" width="15.38" height="7.62" transform="translate(63.61 409.18) rotate(-31.1)"/><rect class="cls-2" x="740.26" y="100.37" width="7.62" height="7.62" transform="translate(53.13 399.29) rotate(-31.1)"/><path class="cls-2" d="M694.7,385.05c-71.18,48.2-181.73,79.14-305.8,79.14C174.11,464.19,0,371.41,0,257c0-59.08,46.42-112.38,120.92-150.15-52,35.25-83,79.6-83,127.92C37.94,349.17,212.1,442,426.9,442,530.68,442,625,420.3,694.7,385.05Z"/><path class="cls-2" d="M433.65,409.61C134.21,394.21,0,285.53,116.74,152.48-42,277.37,123.93,407.36,405.11,422c100.43,5.22,188.1-9.64,243-37.37C593.35,404.18,518,413.94,433.65,409.61Z"/></svg>